<svg width="114" height="61" viewBox="0 0 114 61" fill="none" xmlns="http://www.w3.org/2000/svg">
<path d="M18.048 30.904C17.952 33.208 17.792 34.952 17.568 36.136C17.344 37.32 16.896 38.456 16.224 39.544C15.584 40.6 14.528 41.832 13.056 43.24L14.736 44.152C15.76 44.728 16.512 45.128 16.992 45.352C18.432 46.024 19.52 46.872 20.256 47.896C20.992 48.952 21.36 50.104 21.36 51.352C21.36 52.888 20.848 54.408 19.824 55.912C18.736 57.512 17.376 58.696 15.744 59.464C14.112 60.264 12.368 60.68 10.512 60.712C9.136 60.744 7.728 60.52 6.288 60.04C5.616 59.816 4.944 59.32 4.272 58.552C3.6 57.816 3.056 56.984 2.64 56.056C2.256 55.128 2.08 54.312 2.112 53.608C2.144 53.448 2.208 53.272 2.304 53.08C2.4 52.92 2.512 52.824 2.64 52.792C2.672 52.76 2.736 52.744 2.832 52.744C2.928 52.744 3.056 52.776 3.216 52.84C3.408 52.936 3.536 53 3.6 53.032C3.76 53.096 3.872 53.24 3.936 53.464C4.384 54.456 4.88 55.24 5.424 55.816C5.968 56.392 6.688 56.648 7.584 56.584C10.88 56.36 13.136 55.448 14.352 53.848C14.768 53.336 15.104 52.744 15.36 52.072C15.648 51.432 15.792 50.824 15.792 50.248C15.792 49.416 15.584 48.808 15.168 48.424C14.784 48.04 14.176 47.768 13.344 47.608C12.448 47.448 11.584 47.224 10.752 46.936C9.952 46.648 8.976 46.216 7.824 45.64C7.248 45.352 6.848 45.096 6.624 44.872C6.4 44.648 6.288 44.376 6.288 44.056C6.288 43.736 6.48 42.92 6.864 41.608C6.928 41.416 6.624 41.096 5.952 40.648C5.312 40.2 4.752 39.832 4.272 39.544C2.544 38.52 1.68 36.856 1.68 34.552C1.68 33.912 1.728 33.304 1.824 32.728C2.4 29.208 4.112 26.712 6.96 25.24C7.632 24.888 8.336 24.712 9.072 24.712C9.616 24.712 10.176 24.792 10.752 24.952C11.328 25.112 11.664 25.208 11.76 25.24L12.768 25.528C13.248 25.656 13.712 25.72 14.16 25.72C14.768 25.72 15.312 25.608 15.792 25.384C16.304 25.16 16.816 24.808 17.328 24.328C18.064 23.72 18.848 23.416 19.68 23.416C20.288 23.416 20.832 23.592 21.312 23.944C21.792 24.264 22.144 24.744 22.368 25.384C22.432 25.64 22.464 25.848 22.464 26.008C22.464 26.296 22.416 26.52 22.32 26.68C22.224 26.808 21.952 27.224 21.504 27.928C21.28 28.344 21.072 28.696 20.88 28.984C20.688 29.272 20.384 29.592 19.968 29.944C19.68 30.104 19.376 30.232 19.056 30.328C18.736 30.392 18.48 30.456 18.288 30.52C18.128 30.584 18.048 30.712 18.048 30.904ZM7.968 30.184C6.976 31.336 6.48 32.504 6.48 33.688C6.48 34.52 6.736 35.32 7.248 36.088C7.792 36.824 8.608 37.464 9.696 38.008C10.912 37.528 11.856 36.696 12.528 35.512C13.2 34.328 13.536 33.032 13.536 31.624C13.536 30.76 13.408 29.976 13.152 29.272C12.896 28.568 12.384 28.024 11.616 27.64C10.144 28.216 8.928 29.064 7.968 30.184ZM26.6145 38.152C26.6785 37.704 26.7105 37.048 26.7105 36.184L26.6625 33.352L26.0865 25L26.0385 24.28C26.0385 22.584 26.7585 21.736 28.1985 21.736C28.5505 21.736 28.8545 21.864 29.1105 22.12C29.3985 22.376 29.6545 22.504 29.8785 22.504C30.3585 22.504 30.7745 22.296 31.1265 21.88C31.5105 21.432 31.9105 20.984 32.3265 20.536C32.9985 19.832 33.7825 19.272 34.6785 18.856C35.6065 18.44 36.5345 18.232 37.4625 18.232C38.3585 18.232 39.0785 18.344 39.6225 18.568C39.7825 18.632 39.9585 18.776 40.1505 19C40.3745 19.192 40.4865 19.352 40.4865 19.48C40.4865 19.608 40.3905 19.8 40.1985 20.056C40.0385 20.28 39.8945 20.408 39.7665 20.44C38.5185 20.696 37.4305 21.224 36.5025 22.024C35.6065 22.824 35.0145 23.56 34.7265 24.232C34.4705 24.872 34.0865 26.072 33.5745 27.832C33.2865 28.824 33.0625 29.848 32.9025 30.904C32.7745 31.928 32.7265 33.24 32.7585 34.84C32.7265 35 32.7105 35.224 32.7105 35.512C32.7105 35.928 32.7425 36.488 32.8065 37.192C32.8705 37.96 32.9025 38.504 32.9025 38.824C32.9025 40.424 32.7265 41.336 32.3745 41.56C31.8625 41.816 31.1905 41.944 30.3585 41.944C29.6865 41.944 29.1425 41.864 28.7265 41.704C27.2865 41.16 26.5665 40.168 26.5665 38.728C26.5665 38.472 26.5825 38.28 26.6145 38.152ZM52.0995 39.784C51.1075 40.392 49.9715 40.696 48.6915 40.696C47.2835 40.696 45.9235 40.344 44.6115 39.64C43.3315 38.904 42.3075 37.864 41.5395 36.52C40.7715 35.176 40.4515 33.64 40.5795 31.912L40.8195 30.76C41.0115 29.608 41.1715 28.76 41.2995 28.216C41.5875 27.032 42.1635 26.2 43.0275 25.72C43.8915 25.24 45.0435 24.856 46.4835 24.568C47.4115 24.376 48.3235 24.28 49.2195 24.28C52.0355 24.28 54.4035 25.224 56.3235 27.112C57.3475 28.136 57.8595 29.384 57.8595 30.856C57.8595 32.296 57.3315 33.848 56.2755 35.512C55.0595 37.4 53.6675 38.824 52.0995 39.784ZM48.0675 26.728C47.5555 27.976 47.0115 29.528 46.4355 31.384L45.9555 32.824L46.2915 32.968C46.2915 33.192 46.2915 33.544 46.2915 34.024C46.3235 34.472 46.3875 34.856 46.4835 35.176C46.8355 36.168 47.2355 36.776 47.6835 37C47.8755 37.096 48.1475 37.048 48.4995 36.856C48.8835 36.664 49.2195 36.44 49.5075 36.184C49.9555 35.8 50.6755 35 51.6675 33.784C52.4035 32.952 52.7715 31.96 52.7715 30.808C52.7715 29.816 52.4835 28.92 51.9075 28.12C51.3635 27.32 50.5955 26.776 49.6035 26.488C49.5075 26.456 49.3315 26.44 49.0755 26.44C48.4675 26.44 48.1315 26.536 48.0675 26.728ZM67.5551 24.28C67.8431 24.248 68.0831 24.248 68.2751 24.28C68.4671 24.28 68.6431 24.28 68.8031 24.28C69.0271 24.248 69.3631 24.232 69.8111 24.232C71.9871 24.232 74.1311 24.856 76.2431 26.104C77.1711 26.68 77.6351 27.288 77.6351 27.928C77.6351 28.632 77.1551 29.256 76.1951 29.8C75.3951 30.28 74.5631 30.84 73.6991 31.48C72.1631 32.504 70.8511 33.304 69.7631 33.88C68.7071 34.456 67.5391 34.856 66.2591 35.08C66.0671 35.144 65.8591 35.32 65.6351 35.608C65.4431 35.864 65.3631 36.056 65.3951 36.184C65.4591 36.376 65.5711 36.776 65.7311 37.384C65.8911 37.96 66.0671 38.456 66.2591 38.872C66.4831 39.256 66.7391 39.576 67.0271 39.832C67.3471 40.088 67.8271 40.216 68.4671 40.216C69.1071 40.216 69.6991 40.12 70.2431 39.928C72.1631 39.032 73.9871 37.912 75.7151 36.568C76.2271 36.216 76.6751 36.04 77.0591 36.04C77.5391 36.04 78.0511 36.296 78.5951 36.808C78.9791 37.16 79.1711 37.528 79.1711 37.912C79.1711 38.328 78.8671 38.84 78.2591 39.448C75.5391 42.104 72.6431 43.432 69.5711 43.432C68.7391 43.432 67.7151 43.272 66.4991 42.952C64.4511 42.44 62.8831 41.304 61.7951 39.544C60.7071 37.784 60.1631 35.768 60.1631 33.496C60.1631 32.792 60.2111 32.12 60.3071 31.48C60.3391 31.256 60.4031 30.792 60.4991 30.088C60.6271 29.352 60.8191 28.744 61.0751 28.264C62.2911 25.864 64.4511 24.536 67.5551 24.28ZM70.3391 27.736C69.7631 27.544 69.2511 27.448 68.8031 27.448C68.0671 27.448 67.4911 27.672 67.0751 28.12C66.6591 28.568 66.3231 29.24 66.0671 30.136C66.8351 30.232 67.6511 30.04 68.5151 29.56C69.4111 29.048 70.0191 28.44 70.3391 27.736ZM81.7414 25.096C81.5174 24.84 81.3574 24.568 81.2614 24.28C81.1974 23.992 81.1334 23.592 81.0694 23.08C81.3574 22.408 81.8854 22.072 82.6534 22.072C83.0374 22.136 83.3094 22.168 83.4694 22.168C84.1094 22.168 84.5094 21.976 84.6694 21.592C84.8294 21.208 84.9094 20.76 84.9094 20.248C84.9094 19.736 84.9094 19.336 84.9094 19.048L85.0534 16.168C85.0854 15.528 85.1174 14.744 85.1494 13.816C85.2134 12.856 85.2774 11.752 85.3414 10.504C85.3734 9.832 85.5334 9.336 85.8214 9.016C86.1414 8.696 86.5734 8.536 87.1174 8.536C87.5014 8.536 87.8054 8.568 88.0294 8.632C89.3414 8.92 90.2214 9.336 90.6694 9.88C91.1174 10.424 91.4214 11.24 91.5814 12.328C91.6134 12.552 91.5814 13.016 91.4854 13.72L90.6214 21.208C90.5894 21.4 90.5414 21.64 90.4774 21.928C90.4134 22.184 90.3814 22.376 90.3814 22.504C90.3814 22.792 90.5414 22.984 90.8614 23.08C91.1814 23.176 91.7734 23.208 92.6374 23.176C94.1094 22.856 95.2294 22.648 95.9974 22.552C96.1574 22.52 96.4134 22.504 96.7654 22.504C97.1494 22.504 97.4054 22.552 97.5334 22.648C97.6614 22.712 97.7574 22.904 97.8214 23.224C97.9174 23.512 97.9654 23.848 97.9654 24.232C97.9654 24.584 97.9174 24.904 97.8214 25.192C97.7574 25.48 97.6614 25.64 97.5334 25.672C96.6694 25.928 95.6454 26.136 94.4614 26.296C93.0534 26.552 92.0134 26.776 91.3414 26.968C90.9894 27.064 90.6374 27.304 90.2854 27.688C89.9334 28.072 89.7414 28.424 89.7094 28.744C89.6454 30.312 89.5974 31.912 89.5654 33.544C89.5334 34.792 89.5814 36.04 89.7094 37.288C89.8054 38.344 90.0134 39.112 90.3334 39.592C90.6534 40.04 91.1334 40.264 91.7734 40.264C92.2854 40.264 93.0214 40.088 93.9814 39.736C94.4934 39.512 94.9414 39.4 95.3254 39.4C95.9334 39.4 96.3654 39.736 96.6214 40.408C96.7174 40.632 96.7654 40.856 96.7654 41.08C96.7654 41.496 96.6054 41.832 96.2854 42.088C95.9974 42.344 95.5974 42.568 95.0854 42.76C94.1254 43.112 93.1494 43.304 92.1574 43.336C90.8134 43.336 89.5494 43.016 88.3654 42.376C87.1814 41.704 86.2374 40.776 85.5334 39.592C84.8614 38.408 84.5734 37.048 84.6694 35.512C84.7014 34.904 84.7174 33.944 84.7174 32.632C84.7174 30.552 84.6374 28.44 84.4774 26.296C84.4454 26.104 84.3334 25.976 84.1414 25.912C83.9494 25.816 83.6294 25.72 83.1814 25.624C82.4454 25.496 81.9654 25.32 81.7414 25.096ZM104.896 35.512C104.992 35.352 105.344 35.24 105.952 35.176C106.944 35.08 107.936 35.144 108.928 35.368C109.92 35.56 110.368 35.912 110.272 36.424C110.048 37.608 109.648 38.872 109.072 40.216C108.944 40.536 108.784 41 108.592 41.608C107.184 46.024 104.832 49.816 101.536 52.984C101.44 52.792 101.104 52.552 100.528 52.264C99.9521 51.976 99.6801 51.8 99.7121 51.736C100.288 50.584 100.816 48.856 101.296 46.552L102.88 41.368C102.944 41.176 103.024 40.776 103.12 40.168C103.216 39.528 103.408 38.808 103.696 38.008C103.984 37.176 104.384 36.344 104.896 35.512Z" fill="#FFE401"/>
</svg>
