<svg width="204" height="76" viewBox="0 0 204 76" fill="none" xmlns="http://www.w3.org/2000/svg">
<path d="M26.7741 37.2771C25.4669 34.1127 28.6276 30.9436 31.7837 32.2541L42.3464 36.6411C44.3026 37.4538 45.2319 39.7027 44.4213 41.6642L43.8091 43.1456L52.9066 39.3675C56.0626 38.0571 56.0626 33.5749 52.9066 32.264L27.4137 21.6764C24.2577 20.366 21.097 23.5351 22.4042 26.6995L26.7741 37.2771Z" fill="#1467C3"/>
<path d="M42.357 43.7493L34.8803 46.8545C32.9242 47.6672 30.6809 46.7355 29.8708 44.774L26.7738 37.2776C25.4666 34.1132 28.6273 30.9441 31.7834 32.2545L42.357 36.6458C45.513 37.9562 45.513 42.4384 42.357 43.7493Z" fill="#FFE401"/>
<path d="M29.8711 44.7732C30.6812 46.7348 32.9245 47.6664 34.8806 46.8538L42.3573 43.7486C43.2416 43.3812 43.8781 42.765 44.2668 42.0391L40.0467 52.2546C38.7395 55.419 34.269 55.419 32.9618 52.2546L29.8711 44.7732Z" fill="white"/>
<path d="M87.4467 43.4562C86.8141 43.4562 86.1815 43.371 85.5483 43.21C84.9157 43.0489 84.33 42.821 83.792 42.527C83.2539 42.233 82.7708 41.8686 82.4023 41.4895L84.5381 39.3415C84.8687 39.6735 85.2652 39.9295 85.7185 40.1285C86.1809 40.3184 86.6628 40.4127 87.1728 40.4127C87.4089 40.4127 87.5882 40.3846 87.7206 40.3178C87.853 40.2517 87.9188 40.1659 87.9188 40.0618C87.9188 39.8719 87.8054 39.7206 87.579 39.6257C87.3521 39.5308 87.0691 39.4358 86.7104 39.3605C86.3608 39.2754 85.9924 39.1706 85.5958 39.0383C85.2085 38.9054 84.8309 38.7254 84.4722 38.4981C84.1135 38.2703 83.8298 37.9579 83.6035 37.55C83.3863 37.1421 83.2729 36.6209 83.2729 35.9857C83.2729 35.3506 83.4522 34.7626 83.8207 34.2603C84.1794 33.7581 84.6991 33.3594 85.3598 33.066C86.021 32.772 86.7952 32.6201 87.6736 32.6201C88.552 32.6201 89.4299 32.772 90.2705 33.0752C91.1111 33.3784 91.7718 33.8806 92.2628 34.4876L90.1192 36.6307C89.7794 36.2417 89.4012 35.9857 88.9858 35.8534C88.5703 35.7205 88.2306 35.6544 87.9567 35.6544C87.6828 35.6544 87.5126 35.6923 87.4089 35.7683C87.3051 35.8442 87.2576 35.9392 87.2576 36.0433C87.2576 36.1952 87.371 36.3183 87.5882 36.4132C87.8054 36.5082 88.0884 36.6031 88.438 36.6784C88.7875 36.7636 89.156 36.8683 89.5427 37.0104C89.9301 37.1525 90.2979 37.3424 90.6475 37.5886C90.997 37.8348 91.2801 38.1668 91.4973 38.5747C91.7144 38.9826 91.8279 39.5038 91.8279 40.1579C91.8279 41.163 91.4314 41.9593 90.6383 42.5564C89.8453 43.1444 88.7686 43.4476 87.4278 43.4476" fill="white"/>
<path d="M97.431 43.4562C96.7984 43.4562 96.1658 43.371 95.5326 43.21C94.9 43.0489 94.3144 42.821 93.7764 42.527C93.2383 42.233 92.7552 41.8876 92.3867 41.5085L94.5316 39.3415C94.8622 39.6735 95.2587 39.9295 95.712 40.1285C96.1744 40.3184 96.6563 40.4127 97.1663 40.4127C97.4024 40.4127 97.5817 40.3846 97.7141 40.3178C97.8465 40.2517 97.9124 40.1659 97.9124 40.0618C97.9124 39.8719 97.7989 39.7206 97.5726 39.6257C97.3456 39.5308 97.0626 39.4358 96.7039 39.3605C96.3543 39.2754 95.9865 39.1706 95.5894 39.0383C95.202 38.9054 94.8244 38.7254 94.4657 38.4981C94.107 38.2703 93.8233 37.9579 93.597 37.55C93.3798 37.1421 93.2664 36.6209 93.2664 35.9857C93.2664 35.3506 93.4457 34.7626 93.8142 34.2603C94.1729 33.7581 94.6926 33.3594 95.3533 33.066C96.0146 32.772 96.7887 32.6201 97.6671 32.6201C98.5456 32.6201 99.4234 32.772 100.264 33.0752C101.105 33.3784 101.765 33.8334 102.256 34.4404L100.113 36.6307C99.7729 36.2417 99.3953 35.9857 98.9793 35.8534C98.5639 35.7205 98.2241 35.6544 97.9502 35.6544C97.6763 35.6544 97.5061 35.6923 97.4024 35.7683C97.2987 35.8442 97.2511 35.9392 97.2511 36.0433C97.2511 36.1952 97.3646 36.3183 97.5817 36.4132C97.7989 36.5082 98.0819 36.6031 98.4315 36.6784C98.781 36.7636 99.1489 36.8683 99.5362 37.0104C99.9236 37.1525 100.291 37.3424 100.641 37.5886C100.991 37.8348 101.274 38.1668 101.491 38.5747C101.708 38.9826 101.821 39.5038 101.821 40.1579C101.821 41.163 101.425 41.9593 100.632 42.5564C99.8388 43.1444 98.7621 43.4476 97.4213 43.4476" fill="white"/>
<path d="M112.187 39.7916C111.224 39.7916 110.439 39.0046 110.439 38.0374C110.439 37.0703 111.224 36.2833 112.187 36.2833C113.15 36.2833 113.934 37.0703 113.934 38.0374C113.934 39.0046 113.15 39.7916 112.187 39.7916ZM112.187 32.6807C109.241 32.6807 106.86 35.0791 106.86 38.0283C106.86 40.9774 109.25 43.3758 112.187 43.3758C115.124 43.3758 117.513 40.9774 117.513 38.0283C117.513 35.0791 115.124 32.6807 112.187 32.6807Z" fill="white"/>
<path d="M155.704 39.7867C154.741 39.7867 153.957 38.9997 153.957 38.0326C153.957 37.0654 154.741 36.2784 155.704 36.2784C156.667 36.2784 157.451 37.0654 157.451 38.0326C157.451 38.9997 156.667 39.7867 155.704 39.7867ZM155.704 32.6758C152.758 32.6758 150.378 35.0743 150.378 38.0234C150.378 40.9725 152.767 43.371 155.704 43.371C158.641 43.371 161.03 40.9725 161.03 38.0234C161.03 35.0743 158.641 32.6758 155.704 32.6758Z" fill="white"/>
<path d="M69.9317 27.9717H65.8994V43.0939H69.9317V27.9717Z" fill="white"/>
<path d="M148.365 34.7338C148.006 34.0888 147.514 33.5866 146.891 33.2454C146.268 32.9043 145.551 32.7334 144.739 32.7334C143.87 32.7334 143.105 32.9135 142.435 33.2834C142.132 33.4445 141.868 33.6435 141.632 33.8714C141.396 33.6252 141.141 33.4065 140.838 33.2362C140.281 32.9043 139.658 32.7432 138.978 32.7432C138.194 32.7432 137.495 32.9043 136.882 33.2173C136.722 33.3024 136.57 33.3881 136.428 33.4923V32.9521H132.396V43.1156H136.428V37.2848C136.428 37.0477 136.476 36.8487 136.561 36.6876C136.646 36.5265 136.778 36.3936 136.948 36.3085C137.118 36.2233 137.316 36.1756 137.534 36.1756C137.845 36.1756 138.11 36.2797 138.318 36.4787C138.526 36.6778 138.629 36.9528 138.629 37.2939V43.1248H142.662V37.2939C142.662 37.0569 142.709 36.8579 142.793 36.6968C142.879 36.5357 143.011 36.4028 143.181 36.3177C143.351 36.2325 143.549 36.1847 143.766 36.1847C144.078 36.1847 144.342 36.2889 144.55 36.4879C144.758 36.687 144.862 36.962 144.862 37.3031V43.134H148.894V37.1041C148.894 36.1939 148.715 35.4167 148.356 34.7717" fill="white"/>
<path d="M172.262 33.5126L169.219 36.5732C169.115 36.4691 169.003 36.3937 168.814 36.3178C168.625 36.2418 168.408 36.2039 168.162 36.2039C167.747 36.2039 167.444 36.327 167.237 36.564C167.029 36.801 166.743 37.1508 166.743 37.6058V43.1047H162.71V32.9412H166.743V33.6921C167.499 33.1617 168.379 32.7427 169.474 32.7335C170.06 32.7286 170.921 32.7072 172.262 33.512L172.262 33.5126Z" fill="white"/>
<path d="M128.729 33.5126L125.685 36.5732C125.581 36.4691 125.469 36.3937 125.28 36.3178C125.092 36.2418 124.874 36.2039 124.629 36.2039C124.213 36.2039 123.911 36.327 123.703 36.564C123.495 36.801 123.209 37.1508 123.209 37.6058V43.1047H119.177V32.9412H123.209V33.6921C123.965 33.1617 124.845 32.7427 125.941 32.7335C126.526 32.7286 127.388 32.7072 128.728 33.512L128.729 33.5126Z" fill="white"/>
<path d="M81.152 35.1505C80.6878 34.3806 79.9722 33.7632 79.2579 33.3436C78.4508 32.9657 77.7523 32.6748 76.7013 32.6748C73.3772 32.6748 71.3184 35.3955 71.3184 38.0316C71.3184 40.6677 73.2723 43.3645 76.7769 43.3645C79.4677 43.3645 80.3431 42.2234 81.2838 41.32L79.5678 39.6008C79.2646 39.9431 78.7375 40.2279 78.3678 40.3896C77.9988 40.5513 77.5815 40.6273 77.099 40.6273C76.6165 40.6273 76.1901 40.5323 75.8582 40.3327C75.5269 40.1422 75.2805 39.8574 75.1005 39.477C75.0725 39.4201 75.0627 39.3631 75.034 39.3062L81.8755 39.2584C82.2385 37.0798 81.6162 35.921 81.152 35.1511V35.1505ZM75.1164 36.8109C75.2964 36.0349 75.9912 35.4549 76.8178 35.4549C77.6444 35.4549 78.3386 36.0349 78.5185 36.8109H75.1158H75.1164Z" fill="white"/>
<path d="M181.066 35.1505C180.602 34.3806 179.886 33.7632 179.172 33.3436C178.365 32.9657 177.666 32.6748 176.615 32.6748C173.291 32.6748 171.232 35.3955 171.232 38.0316C171.232 40.6677 173.186 43.3645 176.691 43.3645C179.382 43.3645 180.257 42.2234 181.198 41.32L179.456 39.6032C179.152 39.9456 178.651 40.2279 178.282 40.3896C177.913 40.5513 177.496 40.6273 177.013 40.6273C176.531 40.6273 176.104 40.5323 175.772 40.3327C175.441 40.1422 175.195 39.8574 175.015 39.477C174.987 39.4201 174.977 39.3631 174.948 39.3062L181.79 39.2584C182.153 37.0798 181.53 35.921 181.066 35.1511V35.1505ZM175.03 36.8109C175.21 36.0349 175.905 35.4549 176.732 35.4549C177.558 35.4549 178.253 36.0349 178.433 36.8109H175.03H175.03Z" fill="white"/>
</svg>
